<?xml version="1.0" encoding="UTF-8" standalone="no"?>
<!DOCTYPE svg PUBLIC "-//W3C//DTD SVG 1.1//EN" "http://www.w3.org/Graphics/SVG/1.1/DTD/svg11.dtd">
<svg width="100%" height="100%" viewBox="0 0 354 354" version="1.1" xmlns="http://www.w3.org/2000/svg" xmlns:xlink="http://www.w3.org/1999/xlink" xml:space="preserve" xmlns:serif="http://www.serif.com/" style="fill-rule:evenodd;clip-rule:evenodd;stroke-linejoin:round;stroke-miterlimit:2;">
    <g transform="matrix(1,0,0,1,-1847,0)">
        <rect id="Favicon" x="1847" y="0" width="353.903" height="353.903" style="fill:none;"/>
        <clipPath id="_clip1">
            <rect id="Favicon1" serif:id="Favicon" x="1847" y="0" width="353.903" height="353.903"/>
        </clipPath>
        <g clip-path="url(#_clip1)">
            <path d="M2023.95,0L2112.43,0C2161.26,0 2200.9,39.645 2200.9,88.476L2200.9,265.427C2200.9,314.259 2161.26,353.903 2112.43,353.903L2023.95,353.903L2023.95,271.903L2071.43,271.903C2097.63,271.903 2118.9,250.63 2118.9,224.427L2118.9,129.476C2118.9,103.273 2097.63,82 2071.43,82L2023.95,82L2023.95,0Z" style="fill:rgb(99,86,200);"/>
            <g transform="matrix(-1,0,0,1,4047.9,1.13687e-13)">
                <path d="M2023.95,0L2112.43,0C2161.26,0 2200.9,39.645 2200.9,88.476L2200.9,265.427C2200.9,314.259 2161.26,353.903 2112.43,353.903L2023.95,353.903L2023.95,271.903L2071.43,271.903C2097.63,271.903 2118.9,250.63 2118.9,224.427L2118.9,129.476C2118.9,103.273 2097.63,82 2071.43,82L2023.95,82L2023.95,0Z" style="fill:rgb(106,193,8);"/>
            </g>
        </g>
    </g>
</svg>
