<?xml version="1.0" encoding="UTF-8" standalone="no"?>
<!DOCTYPE svg PUBLIC "-//W3C//DTD SVG 1.1//EN" "http://www.w3.org/Graphics/SVG/1.1/DTD/svg11.dtd">
<svg width="100%" height="100%" viewBox="0 0 1281 300" version="1.1" xmlns="http://www.w3.org/2000/svg" xmlns:xlink="http://www.w3.org/1999/xlink" xml:space="preserve" xmlns:serif="http://www.serif.com/" style="fill-rule:evenodd;clip-rule:evenodd;stroke-linejoin:round;stroke-miterlimit:2;">
    <g transform="matrix(1,0,0,1,0,-1177)">
        <g id="Artboard4" transform="matrix(1,0,0,1,-269.606,823.097)">
            <rect x="269.606" y="353.903" width="1280.62" height="299.748" style="fill:none;"/>
            <clipPath id="_clip1">
                <rect x="269.606" y="353.903" width="1280.62" height="299.748"/>
            </clipPath>
            <g clip-path="url(#_clip1)">
                <g transform="matrix(1,0,0,1,2420,506)">
                    <g transform="matrix(0.925439,0,0,0.925439,-2509.22,-1691.21)">
                        <g transform="matrix(278.6,0,0,278.6,459,1917)">
                            <path d="M0.561,-0.503C0.625,-0.503 0.672,-0.481 0.701,-0.436C0.729,-0.391 0.744,-0.329 0.744,-0.25C0.744,-0.211 0.744,-0.183 0.743,-0.164L0.742,-0.053C0.742,-0.037 0.736,-0.024 0.724,-0.015C0.712,-0.005 0.696,-0 0.676,-0C0.655,-0 0.638,-0.005 0.625,-0.015C0.611,-0.025 0.604,-0.039 0.604,-0.057L0.604,-0.25C0.604,-0.303 0.6,-0.341 0.591,-0.364C0.582,-0.387 0.567,-0.398 0.547,-0.398C0.532,-0.398 0.52,-0.386 0.509,-0.363C0.498,-0.339 0.492,-0.304 0.491,-0.258L0.491,-0.057C0.491,-0.02 0.469,-0.002 0.424,-0.002C0.401,-0.002 0.383,-0.007 0.37,-0.017C0.357,-0.026 0.351,-0.04 0.351,-0.058L0.352,-0.258C0.352,-0.305 0.347,-0.339 0.338,-0.361C0.328,-0.382 0.313,-0.393 0.293,-0.393C0.28,-0.393 0.268,-0.384 0.255,-0.367C0.242,-0.349 0.231,-0.323 0.224,-0.289C0.219,-0.27 0.217,-0.245 0.217,-0.214L0.218,-0.123L0.218,-0.048C0.218,-0.033 0.211,-0.022 0.198,-0.014C0.185,-0.005 0.169,-0.001 0.15,-0.001C0.131,-0.001 0.115,-0.005 0.102,-0.014C0.089,-0.022 0.082,-0.034 0.082,-0.049L0.082,-0.353C0.082,-0.368 0.081,-0.38 0.079,-0.387C0.077,-0.394 0.073,-0.401 0.066,-0.408C0.065,-0.409 0.063,-0.411 0.06,-0.414C0.057,-0.417 0.054,-0.421 0.053,-0.424C0.051,-0.427 0.05,-0.431 0.05,-0.435C0.05,-0.452 0.057,-0.467 0.07,-0.478C0.083,-0.489 0.097,-0.494 0.113,-0.494C0.126,-0.494 0.141,-0.484 0.157,-0.464C0.168,-0.449 0.174,-0.435 0.174,-0.42L0.174,-0.414C0.185,-0.439 0.201,-0.459 0.222,-0.476C0.243,-0.492 0.269,-0.5 0.301,-0.5C0.333,-0.5 0.358,-0.494 0.377,-0.481C0.395,-0.468 0.409,-0.449 0.419,-0.426C0.434,-0.451 0.453,-0.47 0.478,-0.483C0.502,-0.496 0.53,-0.503 0.561,-0.503Z" style="fill:rgb(67,67,67);fill-rule:nonzero;"/>
                        </g>
                        <g transform="matrix(278.6,0,0,278.6,680.209,1917)">
                            <path d="M0.318,0.01C0.257,0.01 0.206,-0.001 0.165,-0.024C0.123,-0.047 0.092,-0.078 0.071,-0.118C0.05,-0.158 0.04,-0.203 0.04,-0.254C0.04,-0.305 0.052,-0.35 0.076,-0.39C0.099,-0.429 0.132,-0.46 0.173,-0.482C0.214,-0.504 0.259,-0.515 0.31,-0.515C0.355,-0.515 0.397,-0.506 0.435,-0.488C0.472,-0.47 0.502,-0.444 0.524,-0.411C0.545,-0.377 0.556,-0.337 0.556,-0.292C0.556,-0.263 0.551,-0.243 0.541,-0.231C0.53,-0.218 0.513,-0.212 0.488,-0.212L0.165,-0.212C0.165,-0.196 0.171,-0.18 0.182,-0.164C0.193,-0.147 0.21,-0.133 0.233,-0.122C0.256,-0.111 0.283,-0.105 0.314,-0.105C0.342,-0.105 0.364,-0.109 0.38,-0.118C0.396,-0.126 0.413,-0.138 0.43,-0.155C0.443,-0.166 0.456,-0.172 0.469,-0.172C0.484,-0.172 0.499,-0.166 0.512,-0.155C0.525,-0.143 0.532,-0.13 0.532,-0.115C0.532,-0.103 0.528,-0.091 0.52,-0.08C0.506,-0.058 0.482,-0.038 0.449,-0.019C0.416,0.001 0.372,0.01 0.318,0.01ZM0.424,-0.302C0.43,-0.302 0.434,-0.303 0.436,-0.305C0.437,-0.307 0.438,-0.311 0.438,-0.316C0.438,-0.342 0.426,-0.364 0.401,-0.381C0.376,-0.398 0.345,-0.407 0.308,-0.407C0.279,-0.407 0.253,-0.401 0.232,-0.39C0.21,-0.379 0.193,-0.365 0.182,-0.349C0.171,-0.332 0.165,-0.317 0.165,-0.302L0.424,-0.302Z" style="fill:rgb(67,67,67);fill-rule:nonzero;"/>
                        </g>
                        <g transform="matrix(278.6,0,0,278.6,846.254,1917)">
                            <path d="M0.561,-0.503C0.625,-0.503 0.672,-0.481 0.701,-0.436C0.729,-0.391 0.744,-0.329 0.744,-0.25C0.744,-0.211 0.744,-0.183 0.743,-0.164L0.742,-0.053C0.742,-0.037 0.736,-0.024 0.724,-0.015C0.712,-0.005 0.696,-0 0.676,-0C0.655,-0 0.638,-0.005 0.625,-0.015C0.611,-0.025 0.604,-0.039 0.604,-0.057L0.604,-0.25C0.604,-0.303 0.6,-0.341 0.591,-0.364C0.582,-0.387 0.567,-0.398 0.547,-0.398C0.532,-0.398 0.52,-0.386 0.509,-0.363C0.498,-0.339 0.492,-0.304 0.491,-0.258L0.491,-0.057C0.491,-0.02 0.469,-0.002 0.424,-0.002C0.401,-0.002 0.383,-0.007 0.37,-0.017C0.357,-0.026 0.351,-0.04 0.351,-0.058L0.352,-0.258C0.352,-0.305 0.347,-0.339 0.338,-0.361C0.328,-0.382 0.313,-0.393 0.293,-0.393C0.28,-0.393 0.268,-0.384 0.255,-0.367C0.242,-0.349 0.231,-0.323 0.224,-0.289C0.219,-0.27 0.217,-0.245 0.217,-0.214L0.218,-0.123L0.218,-0.048C0.218,-0.033 0.211,-0.022 0.198,-0.014C0.185,-0.005 0.169,-0.001 0.15,-0.001C0.131,-0.001 0.115,-0.005 0.102,-0.014C0.089,-0.022 0.082,-0.034 0.082,-0.049L0.082,-0.353C0.082,-0.368 0.081,-0.38 0.079,-0.387C0.077,-0.394 0.073,-0.401 0.066,-0.408C0.065,-0.409 0.063,-0.411 0.06,-0.414C0.057,-0.417 0.054,-0.421 0.053,-0.424C0.051,-0.427 0.05,-0.431 0.05,-0.435C0.05,-0.452 0.057,-0.467 0.07,-0.478C0.083,-0.489 0.097,-0.494 0.113,-0.494C0.126,-0.494 0.141,-0.484 0.157,-0.464C0.168,-0.449 0.174,-0.435 0.174,-0.42L0.174,-0.414C0.185,-0.439 0.201,-0.459 0.222,-0.476C0.243,-0.492 0.269,-0.5 0.301,-0.5C0.333,-0.5 0.358,-0.494 0.377,-0.481C0.395,-0.468 0.409,-0.449 0.419,-0.426C0.434,-0.451 0.453,-0.47 0.478,-0.483C0.502,-0.496 0.53,-0.503 0.561,-0.503Z" style="fill:rgb(67,67,67);fill-rule:nonzero;"/>
                        </g>
                        <g transform="matrix(278.6,0,0,278.6,1067.46,1917)">
                            <path d="M0.318,0.01C0.257,0.01 0.206,-0.001 0.165,-0.024C0.123,-0.047 0.092,-0.078 0.071,-0.118C0.05,-0.158 0.04,-0.203 0.04,-0.254C0.04,-0.305 0.052,-0.35 0.076,-0.39C0.099,-0.429 0.132,-0.46 0.173,-0.482C0.214,-0.504 0.259,-0.515 0.31,-0.515C0.355,-0.515 0.397,-0.506 0.435,-0.488C0.472,-0.47 0.502,-0.444 0.524,-0.411C0.545,-0.377 0.556,-0.337 0.556,-0.292C0.556,-0.263 0.551,-0.243 0.541,-0.231C0.53,-0.218 0.513,-0.212 0.488,-0.212L0.165,-0.212C0.165,-0.196 0.171,-0.18 0.182,-0.164C0.193,-0.147 0.21,-0.133 0.233,-0.122C0.256,-0.111 0.283,-0.105 0.314,-0.105C0.342,-0.105 0.364,-0.109 0.38,-0.118C0.396,-0.126 0.413,-0.138 0.43,-0.155C0.443,-0.166 0.456,-0.172 0.469,-0.172C0.484,-0.172 0.499,-0.166 0.512,-0.155C0.525,-0.143 0.532,-0.13 0.532,-0.115C0.532,-0.103 0.528,-0.091 0.52,-0.08C0.506,-0.058 0.482,-0.038 0.449,-0.019C0.416,0.001 0.372,0.01 0.318,0.01ZM0.424,-0.302C0.43,-0.302 0.434,-0.303 0.436,-0.305C0.437,-0.307 0.438,-0.311 0.438,-0.316C0.438,-0.342 0.426,-0.364 0.401,-0.381C0.376,-0.398 0.345,-0.407 0.308,-0.407C0.279,-0.407 0.253,-0.401 0.232,-0.39C0.21,-0.379 0.193,-0.365 0.182,-0.349C0.171,-0.332 0.165,-0.317 0.165,-0.302L0.424,-0.302Z" style="fill:rgb(67,67,67);fill-rule:nonzero;"/>
                        </g>
                        <g transform="matrix(278.6,0,0,278.6,1233.51,1917)">
                            <path d="M0.339,-0.511C0.398,-0.511 0.443,-0.491 0.476,-0.45C0.508,-0.409 0.524,-0.348 0.524,-0.268L0.523,-0.042C0.523,-0.028 0.516,-0.017 0.503,-0.01C0.489,-0.003 0.472,0.001 0.452,0.001C0.433,0.001 0.416,-0.002 0.401,-0.009C0.386,-0.016 0.378,-0.025 0.378,-0.037L0.379,-0.269C0.379,-0.318 0.374,-0.352 0.363,-0.371C0.352,-0.39 0.336,-0.4 0.313,-0.4C0.294,-0.4 0.278,-0.391 0.267,-0.374C0.256,-0.357 0.246,-0.323 0.238,-0.273C0.233,-0.245 0.231,-0.214 0.231,-0.18L0.232,-0.051C0.232,-0.034 0.226,-0.021 0.213,-0.012C0.2,-0.003 0.182,0.002 0.16,0.002C0.137,0.002 0.119,-0.003 0.107,-0.012C0.094,-0.021 0.087,-0.034 0.087,-0.051C0.087,-0.19 0.085,-0.298 0.081,-0.375C0.08,-0.383 0.079,-0.391 0.076,-0.398C0.073,-0.405 0.069,-0.411 0.065,-0.417C0.061,-0.423 0.058,-0.428 0.056,-0.431C0.052,-0.438 0.05,-0.446 0.05,-0.453C0.05,-0.467 0.058,-0.48 0.075,-0.493C0.091,-0.505 0.107,-0.511 0.122,-0.511C0.129,-0.511 0.137,-0.509 0.144,-0.504C0.151,-0.499 0.158,-0.492 0.167,-0.481C0.174,-0.472 0.18,-0.463 0.183,-0.456C0.186,-0.449 0.188,-0.44 0.188,-0.431L0.188,-0.422C0.2,-0.447 0.218,-0.468 0.243,-0.486C0.267,-0.503 0.299,-0.511 0.339,-0.511Z" style="fill:rgb(67,67,67);fill-rule:nonzero;"/>
                        </g>
                        <g transform="matrix(278.6,0,0,278.6,1393.43,1917)">
                            <path d="M0.351,-0.199C0.373,-0.199 0.389,-0.195 0.399,-0.186C0.409,-0.177 0.414,-0.163 0.414,-0.144C0.414,-0.1 0.4,-0.065 0.372,-0.038C0.344,-0.011 0.309,0.002 0.266,0.002C0.208,0.002 0.166,-0.022 0.139,-0.069C0.112,-0.116 0.099,-0.19 0.099,-0.292C0.099,-0.323 0.099,-0.345 0.1,-0.359C0.095,-0.36 0.088,-0.36 0.077,-0.36C0.039,-0.361 0.02,-0.379 0.02,-0.415C0.02,-0.434 0.025,-0.448 0.035,-0.457C0.044,-0.466 0.061,-0.471 0.086,-0.47L0.108,-0.469C0.113,-0.51 0.12,-0.561 0.131,-0.621C0.134,-0.637 0.141,-0.649 0.154,-0.658C0.166,-0.666 0.182,-0.67 0.201,-0.67C0.226,-0.67 0.244,-0.664 0.257,-0.651C0.27,-0.638 0.275,-0.624 0.272,-0.607L0.267,-0.575C0.259,-0.52 0.254,-0.483 0.251,-0.463C0.274,-0.462 0.291,-0.461 0.303,-0.461C0.337,-0.46 0.354,-0.443 0.354,-0.408C0.354,-0.391 0.349,-0.378 0.34,-0.369C0.331,-0.36 0.315,-0.356 0.293,-0.356L0.243,-0.356C0.242,-0.343 0.242,-0.321 0.242,-0.292C0.242,-0.243 0.243,-0.205 0.246,-0.179C0.248,-0.152 0.251,-0.134 0.256,-0.125C0.261,-0.116 0.267,-0.111 0.274,-0.111C0.283,-0.111 0.289,-0.114 0.292,-0.12C0.295,-0.126 0.296,-0.137 0.296,-0.152C0.296,-0.183 0.314,-0.199 0.351,-0.199Z" style="fill:rgb(67,67,67);fill-rule:nonzero;"/>
                        </g>
                        <g transform="matrix(278.6,0,0,278.6,1517.12,1917)">
                            <path d="M0.306,0.003C0.221,0.003 0.154,-0.019 0.105,-0.064C0.055,-0.108 0.03,-0.17 0.03,-0.25C0.03,-0.302 0.041,-0.348 0.063,-0.389C0.085,-0.43 0.116,-0.461 0.157,-0.484C0.197,-0.507 0.244,-0.518 0.299,-0.518C0.354,-0.518 0.403,-0.506 0.445,-0.483C0.487,-0.46 0.52,-0.427 0.543,-0.386C0.566,-0.344 0.577,-0.296 0.577,-0.243C0.577,-0.165 0.553,-0.105 0.504,-0.062C0.455,-0.019 0.389,0.003 0.306,0.003ZM0.304,-0.108C0.345,-0.108 0.376,-0.12 0.399,-0.143C0.421,-0.166 0.432,-0.2 0.432,-0.245C0.432,-0.29 0.421,-0.328 0.4,-0.36C0.378,-0.391 0.346,-0.407 0.304,-0.407C0.265,-0.407 0.233,-0.393 0.21,-0.364C0.187,-0.335 0.175,-0.297 0.175,-0.249C0.175,-0.202 0.186,-0.167 0.209,-0.144C0.232,-0.12 0.263,-0.108 0.304,-0.108Z" style="fill:rgb(67,67,67);fill-rule:nonzero;"/>
                        </g>
                    </g>
                    <g transform="matrix(1.16189,0,0,1.16189,-2699.89,-2135.69)">
                        <g transform="matrix(278.6,0,0,278.6,459,1917)">
                            <path d="M0.172,0.173C0.155,0.173 0.12,0.17 0.069,0.164C0.072,0.105 0.073,0.04 0.073,-0.033C0.073,-0.104 0.072,-0.192 0.07,-0.296C0.069,-0.396 0.067,-0.472 0.065,-0.525C0.062,-0.577 0.057,-0.651 0.05,-0.748C0.09,-0.751 0.164,-0.753 0.271,-0.753C0.286,-0.753 0.298,-0.748 0.308,-0.737C0.317,-0.725 0.322,-0.713 0.322,-0.699C0.322,-0.681 0.318,-0.667 0.309,-0.657C0.3,-0.647 0.286,-0.642 0.267,-0.642L0.236,-0.642C0.213,-0.642 0.191,-0.641 0.172,-0.64L0.174,-0.59C0.178,-0.486 0.18,-0.389 0.18,-0.299C0.18,-0.173 0.18,-0.094 0.181,-0.061L0.181,0.001C0.181,0.028 0.181,0.049 0.18,0.063L0.281,0.063C0.311,0.063 0.326,0.082 0.326,0.119C0.326,0.134 0.321,0.146 0.312,0.155C0.302,0.164 0.289,0.169 0.273,0.17C0.25,0.172 0.217,0.173 0.172,0.173Z" style="fill:rgb(106,193,9);fill-rule:nonzero;"/>
                        </g>
                    </g>
                    <g transform="matrix(-1.16189,0,0,1.16189,-328.114,-2135.69)">
                        <g transform="matrix(278.6,0,0,278.6,459,1917)">
                            <path d="M0.172,0.173C0.155,0.173 0.12,0.17 0.069,0.164C0.072,0.105 0.073,0.04 0.073,-0.033C0.073,-0.104 0.072,-0.192 0.07,-0.296C0.069,-0.396 0.067,-0.472 0.065,-0.525C0.062,-0.577 0.057,-0.651 0.05,-0.748C0.09,-0.751 0.164,-0.753 0.271,-0.753C0.286,-0.753 0.298,-0.748 0.308,-0.737C0.317,-0.725 0.322,-0.713 0.322,-0.699C0.322,-0.681 0.318,-0.667 0.309,-0.657C0.3,-0.647 0.286,-0.642 0.267,-0.642L0.236,-0.642C0.213,-0.642 0.191,-0.641 0.172,-0.64L0.174,-0.59C0.178,-0.486 0.18,-0.389 0.18,-0.299C0.18,-0.173 0.18,-0.094 0.181,-0.061L0.181,0.001C0.181,0.028 0.181,0.049 0.18,0.063L0.281,0.063C0.311,0.063 0.326,0.082 0.326,0.119C0.326,0.134 0.321,0.146 0.312,0.155C0.302,0.164 0.289,0.169 0.273,0.17C0.25,0.172 0.217,0.173 0.172,0.173Z" style="fill:rgb(100,86,200);fill-rule:nonzero;"/>
                        </g>
                    </g>
                </g>
            </g>
        </g>
    </g>
</svg>
