<?xml version="1.0" encoding="UTF-8" standalone="no"?>
<!DOCTYPE svg PUBLIC "-//W3C//DTD SVG 1.1//EN" "http://www.w3.org/Graphics/SVG/1.1/DTD/svg11.dtd">
<svg width="100%" height="100%" viewBox="0 0 337 308" version="1.1" xmlns="http://www.w3.org/2000/svg" xmlns:xlink="http://www.w3.org/1999/xlink" xml:space="preserve" xmlns:serif="http://www.serif.com/" style="fill-rule:evenodd;clip-rule:evenodd;stroke-linejoin:round;stroke-miterlimit:2;">
    <g transform="matrix(1,0,0,1,-2306,-406)">
        <g id="Artboard3" transform="matrix(0.185982,0,0,0.305249,2756.08,560.456)">
            <rect x="-2420" y="-506" width="1812" height="1007.56" style="fill:none;"/>
            <clipPath id="_clip1">
                <rect x="-2420" y="-506" width="1812" height="1007.56"/>
            </clipPath>
            <g clip-path="url(#_clip1)">
                <g id="magnify" transform="matrix(94.4959,0,0,57.5746,-2624.33,-678.724)">
                    <path d="M9.5,3C13.09,3 16,5.91 16,9.5C16,11.115 15.411,12.592 14.436,13.729L14.707,14L15.5,14L20.5,19L19,20.5L14,15.5L14,14.707L13.729,14.436C12.592,15.411 11.115,16 9.5,16C5.91,16 3,13.09 3,9.5C3,5.91 5.91,3 9.5,3ZM9.5,5C7.015,5 5,7.015 5,9.5C5,11.985 7.015,14 9.5,14C11.985,14 14,11.985 14,9.5C14,7.015 11.985,5 9.5,5Z" style="fill:rgb(99,86,200);fill-rule:nonzero;"/>
                </g>
                <g id="magnify1" serif:id="magnify" transform="matrix(94.4959,0,0,57.5746,-2624.33,-678.724)">
                    <path d="M13.729,14.436C12.592,15.411 15.411,12.592 14.436,13.729L14.707,14L15.5,14L20.5,19L19,20.5L14,15.5L14,14.707L13.729,14.436Z" style="fill:rgb(127,200,86);fill-rule:nonzero;"/>
                </g>
            </g>
        </g>
    </g>
</svg>
