<?xml version="1.0" encoding="UTF-8" standalone="no"?>
<!DOCTYPE svg PUBLIC "-//W3C//DTD SVG 1.1//EN" "http://www.w3.org/Graphics/SVG/1.1/DTD/svg11.dtd">
<svg width="100%" height="100%" viewBox="0 0 337 308" version="1.1" xmlns="http://www.w3.org/2000/svg" xmlns:xlink="http://www.w3.org/1999/xlink" xml:space="preserve" xmlns:serif="http://www.serif.com/" style="fill-rule:evenodd;clip-rule:evenodd;stroke-linejoin:round;stroke-miterlimit:2;">
    <g transform="matrix(1,0,0,1,-2698,0)">
        <g id="Artboard3" transform="matrix(0.185982,0,0,0.305249,3148.08,154.456)">
            <rect x="-2420" y="-506" width="1812" height="1007.56" style="fill:none;"/>
            <g transform="matrix(5.82982,0,0,3.552,8878.95,877.877)">
                <g transform="matrix(7.11451e-17,1.16189,-1.16189,7.11451e-17,350.742,-764.152)">
                    <g transform="matrix(278.6,0,0,278.6,459,1917)">
                        <path d="M0.172,0.173C0.155,0.173 0.12,0.17 0.069,0.164C0.072,0.105 0.073,0.04 0.073,-0.033C0.073,-0.104 0.072,-0.192 0.07,-0.296C0.069,-0.396 0.067,-0.472 0.065,-0.525C0.062,-0.577 0.057,-0.651 0.05,-0.748C0.09,-0.751 0.164,-0.753 0.271,-0.753C0.286,-0.753 0.298,-0.748 0.308,-0.737C0.317,-0.725 0.322,-0.713 0.322,-0.699C0.322,-0.681 0.318,-0.667 0.309,-0.657C0.3,-0.647 0.286,-0.642 0.267,-0.642L0.236,-0.642C0.213,-0.642 0.191,-0.641 0.172,-0.64L0.174,-0.59C0.178,-0.486 0.18,-0.389 0.18,-0.299C0.18,-0.173 0.18,-0.094 0.181,-0.061L0.181,0.001C0.181,0.028 0.181,0.049 0.18,0.063L0.281,0.063C0.311,0.063 0.326,0.082 0.326,0.119C0.326,0.134 0.321,0.146 0.312,0.155C0.302,0.164 0.289,0.169 0.273,0.17C0.25,0.172 0.217,0.173 0.172,0.173Z" style="fill:rgb(106,193,9);fill-rule:nonzero;"/>
                    </g>
                </g>
                <g transform="matrix(0.922302,0,0,0.922302,-4082.48,-388.683)">
                    <circle cx="2411" cy="66" r="39" style="fill:rgb(99,86,200);"/>
                </g>
                <g transform="matrix(0.922302,0,0,0.922302,-3930.3,-388.683)">
                    <circle cx="2411" cy="66" r="39" style="fill:rgb(99,86,200);"/>
                </g>
                <g transform="matrix(0.331083,0,0,0.331083,-2481.82,-359.808)">
                    <circle cx="2411" cy="66" r="39" style="fill:white;"/>
                </g>
                <g transform="matrix(0.331083,0,0,0.331083,-2634,-362.575)">
                    <circle cx="2411" cy="66" r="39" style="fill:white;"/>
                </g>
            </g>
        </g>
    </g>
</svg>
